<svg t="1699338746585" class="icon" viewBox="0 0 1024 1024" version="1.1" xmlns="http://www.w3.org/2000/svg" p-id="12165" width="36" height="36"><path d="M188.32 834.816H833.92a107.904 107.904 0 0 0 107.584-107.584V108.544A107.904 107.904 0 0 0 833.92 0.96H188.32A107.904 107.904 0 0 0 80.736 108.544V915.52a107.904 107.904 0 0 0 107.584 107.584h712.832c21.536 0 40.352-18.816 40.352-40.32 0-21.536-18.816-40.384-40.32-40.384H215.2a53.952 53.952 0 0 1-53.792-53.76v-56.512c8.064 0 18.816 2.688 26.88 2.688zM295.936 54.752h161.376v263.616l-56.48-59.2c-13.44-10.752-32.288-10.752-43.04 0L295.936 318.4V54.72z" fill="#a686ba" p-id="12166"></path></svg>